<?xml version="1.0" standalone="no"?>
<!DOCTYPE svg PUBLIC "-//W3C//DTD SVG 20010904//EN"
 "http://www.w3.org/TR/2001/REC-SVG-20010904/DTD/svg10.dtd">
<svg version="1.0" xmlns="http://www.w3.org/2000/svg"
 width="350.000000pt" height="350.000000pt" viewBox="0 0 350.000000 350.000000"
 preserveAspectRatio="xMidYMid meet">
<metadata>
Created by potrace 1.14, written by Peter Selinger 2001-2017
</metadata>
<g transform="translate(0.000000,350.000000) scale(0.100000,-0.100000)"
fill="#000000" stroke="none">
<path d="M1610 3219 c-91 -26 -187 -56 -215 -66 l-50 -19 0 -284 c0 -331 14
-305 -128 -234 l-88 45 -172 -47 c-95 -25 -179 -50 -188 -55 -14 -7 -16 -46
-16 -348 1 -263 4 -341 13 -345 16 -6 22 16 22 79 0 101 0 102 25 100 12 -1
30 -3 39 -4 14 -1 16 -12 14 -71 l-1 -70 -75 -61 c-41 -33 -84 -68 -95 -77
-11 -10 -58 -49 -105 -87 -107 -86 -145 -123 -138 -131 12 -11 43 6 88 48 25
22 70 59 100 82 30 22 60 45 66 50 24 23 72 63 129 109 33 27 62 56 65 65 3
10 6 162 5 339 l0 322 36 9 36 9 1 -64 c0 -35 3 -67 6 -72 3 -4 45 -11 93 -15
48 -3 104 -9 125 -12 l38 -7 0 77 c0 42 3 76 8 75 4 0 25 -8 46 -18 l39 -17 0
-119 0 -119 -32 -28 c-33 -29 -42 -54 -15 -44 16 6 356 273 426 335 37 32 38
35 38 98 l0 66 45 -5 c50 -6 47 -13 47 98 l-1 51 37 -6 37 -6 1 -180 c0 -99
-1 -184 -4 -188 -2 -5 -21 8 -42 28 l-37 36 -89 -73 c-49 -40 -110 -92 -135
-116 -26 -24 -60 -53 -76 -65 -32 -24 -132 -108 -172 -146 -14 -13 -42 -35
-61 -49 -19 -14 -64 -51 -100 -82 -36 -31 -99 -83 -140 -117 -41 -34 -113 -94
-160 -133 -47 -39 -119 -99 -160 -133 -111 -92 -113 -94 -98 -99 7 -3 77 -6
155 -7 l141 -2 85 73 c46 40 95 82 108 92 13 11 58 49 99 85 41 36 84 73 95
82 11 10 47 41 81 71 33 29 130 112 215 184 85 73 165 141 178 153 l25 22 99
-103 c55 -57 161 -166 236 -244 75 -77 203 -211 285 -297 l149 -157 119 0 c65
0 118 3 118 8 0 4 -8 15 -17 23 -10 9 -67 69 -128 134 -60 66 -149 160 -196
210 -182 192 -267 282 -325 345 -32 35 -74 78 -93 95 l-33 31 2 245 c2 256 3
498 1 537 -1 12 -5 22 -11 22 -10 0 -195 104 -219 123 -21 18 -27 16 -201 -34z
m198 -237 l2 -242 -30 0 -30 0 0 93 c-2 380 0 401 40 394 13 -2 15 -38 18
-245z m-93 78 l0 -151 -35 4 -35 3 -3 136 -3 136 28 10 c16 6 33 11 38 11 6 1
10 -55 10 -149z m165 115 c17 -9 31 -19 31 -23 5 -32 3 -264 -2 -268 -4 -2
-21 -1 -37 2 l-31 6 1 149 c0 82 2 149 4 149 3 0 18 -7 34 -15z m-269 -67 c0
-40 0 -180 -1 -311 -1 -191 2 -238 12 -235 10 4 14 45 16 166 2 160 3 162 25
161 51 -1 52 -4 52 -154 l0 -139 -35 -31 c-19 -17 -56 -48 -82 -68 l-48 -38 0
355 c0 329 1 355 18 359 41 11 42 9 43 -65z m-97 -273 c1 -170 5 -316 10 -324
7 -10 2 -12 -25 -6 -19 4 -37 9 -41 11 -4 3 -7 144 -8 314 0 287 1 309 17 313
47 13 46 20 47 -308z m502 214 l0 -60 -31 7 c-16 3 -31 8 -33 9 -3 3 -6 100
-3 122 1 10 9 9 34 -3 32 -15 33 -18 33 -75z m-597 11 c-2 -68 -9 -80 -35 -62
-6 4 -10 32 -10 62 0 46 3 56 21 62 11 3 21 6 23 7 2 1 2 -30 1 -69z m2 -349
c1 -130 1 -259 1 -288 1 -63 -5 -78 -32 -93 l-20 -11 1 313 c1 172 4 316 6
320 1 3 12 4 23 1 19 -5 20 -14 21 -242z m584 241 c9 -6 13 -174 6 -239 -1
-10 -10 -11 -61 -4 -4 1 -4 131 -1 234 1 18 36 24 56 9z m-6 -282 c14 0 16 -9
14 -61 -1 -34 -4 -63 -6 -65 -2 -2 -16 0 -32 4 -28 8 -29 11 -30 63 -1 64 2
72 22 65 8 -3 22 -6 32 -6z m-904 -154 c0 -49 -1 -51 -28 -50 -59 3 -57 0 -55
62 2 56 3 57 38 68 41 13 45 5 45 -80z m80 82 c14 -6 25 -17 26 -25 1 -7 2
-37 2 -65 l1 -53 -34 0 -35 0 -3 78 c-3 81 -1 85 43 65z m-305 -129 l0 -70
-36 4 c-44 5 -50 14 -49 74 0 44 2 47 35 58 19 7 38 10 43 8 4 -2 7 -36 7 -74z
m1141 22 c0 -9 2 -42 2 -73 l2 -57 -36 35 c-31 30 -36 41 -34 77 1 23 3 42 4
43 0 0 15 -1 31 -4 19 -3 30 -10 31 -21z m-489 -34 c6 -10 -46 -67 -63 -67 -8
0 -10 71 -2 83 7 11 56 -1 65 -16z m-654 -156 l-3 -66 -35 3 c-19 2 -37 5 -39
7 -5 6 -8 98 -3 113 3 8 19 12 44 10 l39 -2 -3 -65z m-23 -101 c22 0 23 -4 23
-60 l-1 -60 -37 0 c-37 0 -38 1 -41 43 -6 63 0 90 18 83 8 -3 25 -6 38 -6z"/>
<path d="M2260 2846 c-131 -47 -154 -56 -160 -66 -8 -13 -4 -405 4 -418 18
-30 26 9 26 134 0 132 0 134 23 134 12 0 27 -4 32 -8 11 -7 14 -256 4 -267 -4
-3 -12 1 -19 10 -15 18 -30 20 -30 2 0 -22 200 -226 215 -220 9 3 26 -8 41
-26 14 -17 47 -53 72 -79 84 -88 336 -353 366 -386 16 -17 61 -65 100 -106
l71 -75 118 -5 c64 -3 117 -3 117 0 0 3 -19 25 -43 50 -23 25 -99 106 -167
180 -69 74 -138 148 -155 165 -16 18 -52 58 -80 90 l-50 58 0 104 0 105 53 -5
c30 -3 56 -8 59 -10 3 -3 4 -69 4 -146 l-2 -140 43 -43 c24 -24 58 -60 76 -81
l32 -38 1 63 c0 35 1 139 2 231 1 93 -1 171 -4 173 -8 4 -64 11 -159 19 -41 3
-84 8 -95 10 -38 8 -43 -6 -42 -103 1 -52 0 -95 -4 -98 -3 -2 -16 7 -28 20
-21 23 -22 26 -17 315 l5 292 -46 27 c-24 15 -94 60 -154 100 -60 39 -111 72
-112 72 -1 0 -45 -16 -97 -34z m116 -18 c4 -6 8 -112 8 -235 l1 -224 -30 3
-30 3 0 223 c0 190 2 225 15 232 20 13 28 12 36 -2z m-81 -302 c0 -282 0 -284
-20 -268 -52 45 -49 30 -48 276 1 127 2 239 2 248 1 16 17 24 51 27 13 1 15
-37 15 -283z m179 157 c-1 -43 -3 -102 -3 -131 -1 -52 -2 -53 -28 -50 l-28 3
-1 140 c0 77 1 143 3 148 3 4 17 -1 32 -12 25 -18 27 -23 25 -98z m-276 36 l1
-60 -32 3 c-31 3 -32 5 -35 51 -3 41 0 48 20 56 41 17 44 13 46 -50z m363 -13
c0 -6 0 -42 -2 -81 -1 -38 -2 -148 -2 -244 l0 -174 -27 30 -27 30 2 234 c2
129 3 235 4 236 3 7 51 -22 52 -31z m58 -26 c14 -7 18 -21 17 -62 -1 -29 -4
-52 -8 -50 -5 1 -15 2 -23 2 -12 0 -15 13 -15 60 0 63 1 65 29 50z m17 -206
c0 -50 -2 -54 -23 -54 -21 0 -23 4 -23 53 0 60 3 67 29 60 14 -3 17 -15 17
-59z m-177 -4 c14 0 17 -12 16 -91 l0 -92 -60 -58 c-53 -51 -62 -56 -75 -43
-10 10 -15 36 -15 85 l0 70 45 -3 45 -3 0 73 c-1 57 2 71 13 67 8 -3 21 -5 31
-5z m172 -89 c3 -1 6 -26 5 -56 -1 -50 -3 -55 -23 -55 -21 0 -23 4 -23 59 0
51 2 59 18 56 9 -2 20 -4 23 -4z m5 -199 l1 -52 -24 22 c-15 14 -23 33 -23 55
0 30 3 34 23 31 19 -3 22 -9 23 -56z"/>
<path d="M1050 2166 c0 -273 -10 -259 105 -153 l70 64 -1 144 c-2 179 -1 168
-21 167 -10 0 -48 3 -85 7 l-68 7 0 -236z"/>
<path d="M1570 1858 c-1 -29 -2 -444 -1 -459 1 -14 27 -16 219 -18 l218 -2 2
235 2 236 -27 0 c-16 1 -53 3 -83 5 -191 14 -330 15 -330 3z m200 -34 c3 -3 5
-46 5 -95 l0 -90 -90 3 -90 3 -1 90 c0 50 0 92 2 96 3 6 167 0 174 -7z m209
-10 c4 -3 4 -56 2 -152 l-1 -33 -82 5 c-46 2 -86 5 -90 5 -9 1 -11 175 -3 183
6 6 167 -2 174 -8z m-208 -211 c4 -21 5 -169 2 -179 -3 -9 -125 -12 -174 -5
-4 1 -6 44 -7 96 l0 95 89 0 c49 0 90 -3 90 -7z m207 -7 c3 -3 5 -87 3 -149
l-1 -38 -90 2 -90 2 0 92 c0 50 2 94 5 97 6 5 167 -1 173 -6z"/>
<path d="M200 1355 c0 -8 3 -15 8 -16 4 0 256 -2 560 -3 500 -2 553 -1 550 13
-3 14 -61 16 -561 19 -491 2 -557 0 -557 -13z"/>
<path d="M2297 1348 c-9 -6 -9 -10 1 -16 7 -5 240 -10 518 -11 450 -2 504 0
504 13 0 14 -42 16 -367 17 -203 0 -430 1 -506 2 -77 1 -144 -1 -150 -5z"/>
<path d="M3238 1033 c-46 -4 -65 -18 -33 -25 11 -2 -2 -22 -44 -65 -33 -35
-61 -63 -63 -63 -3 0 -2 38 1 101 1 12 10 23 21 26 41 11 18 23 -45 23 -52 0
-65 -3 -65 -16 0 -8 4 -13 9 -10 21 13 28 -26 26 -144 -3 -157 -1 -146 -27
-156 -17 -6 -6 -9 41 -11 70 -4 84 1 56 20 -14 11 -18 27 -17 71 0 32 3 61 7
64 8 8 55 -50 48 -60 -2 -5 0 -8 5 -8 5 0 17 -12 27 -26 13 -20 14 -28 4 -40
-13 -16 -12 -16 56 -14 57 2 66 7 45 23 -9 7 -44 49 -79 94 l-63 83 58 55 c33
30 65 55 72 55 6 0 12 7 12 15 0 8 -1 14 -2 13 -2 -1 -24 -3 -50 -5z"/>
<path d="M2248 1022 c-57 -3 -79 -18 -35 -24 22 -3 22 -5 22 -151 0 -82 -2
-152 -5 -156 -3 -4 -14 -11 -25 -15 -28 -10 -4 -23 37 -20 18 2 72 4 121 5
l87 2 0 48 c0 27 -4 49 -10 49 -5 0 -10 -10 -10 -23 0 -35 -19 -47 -77 -47
l-54 0 3 153 c3 150 3 152 26 155 27 4 24 25 -4 26 -10 1 -45 0 -76 -2z"/>
<path d="M2488 1018 l-23 -6 23 -7 c25 -8 24 0 23 -170 0 -121 -2 -131 -22
-147 -14 -12 -16 -18 -8 -19 28 -2 124 3 127 6 2 2 -6 13 -18 25 -19 19 -21
31 -19 148 1 69 3 132 6 139 3 7 14 13 25 13 11 0 18 5 16 12 -5 13 -92 17
-130 6z"/>
<path d="M2662 1022 c-19 -6 -14 -22 7 -22 25 0 28 -16 26 -145 -3 -154 -3
-153 -25 -160 -11 -3 -20 -10 -20 -16 0 -13 103 -5 108 9 2 7 -3 12 -11 12
-23 0 -27 22 -27 137 0 102 1 105 18 85 44 -52 58 -70 114 -143 62 -81 87
-107 89 -93 1 5 2 70 4 144 3 175 2 168 25 175 39 12 19 25 -36 23 -58 -2 -81
-15 -45 -25 12 -3 22 -10 22 -17 5 -44 3 -159 -3 -162 -4 -2 -41 41 -83 96
-43 55 -80 101 -84 101 -18 4 -69 5 -79 1z"/>
<path d="M1449 1010 c-47 -13 -78 -41 -105 -96 -42 -85 -30 -174 31 -237 58
-59 170 -61 233 -3 61 55 85 183 48 254 -20 39 -72 82 -102 84 -66 5 -81 4
-105 -2z m112 -49 c16 -16 30 -40 30 -53 1 -13 3 -43 5 -68 5 -69 -5 -118 -33
-150 -34 -40 -93 -42 -128 -4 -61 66 -53 255 12 293 35 20 83 13 114 -18z"/>
<path d="M1705 1010 c-6 -10 -5 -11 17 -14 19 -2 24 -43 23 -188 -1 -124 -3
-139 -21 -153 -23 -17 -20 -18 71 -16 107 3 159 20 180 62 29 55 14 112 -32
130 l-26 10 21 15 c12 8 25 29 30 47 22 86 -20 117 -160 117 -54 0 -100 -4
-103 -10z m179 -36 c20 -20 20 -73 0 -102 -19 -28 -73 -31 -75 -4 -4 57 -4
108 -1 115 6 13 60 7 76 -9z m17 -171 c12 -12 14 -71 5 -100 -5 -14 -19 -26
-39 -31 -56 -15 -62 -8 -61 67 0 37 3 72 7 78 8 12 73 1 88 -14z"/>
<path d="M2015 1010 c-3 -5 3 -10 14 -10 11 0 23 -5 26 -10 8 -13 7 -283 -1
-304 -3 -9 -12 -16 -19 -16 -8 0 -17 -4 -20 -10 -4 -6 24 -10 75 -10 61 0 81
3 78 13 -3 6 -9 12 -14 12 -29 1 -33 19 -31 163 2 142 3 147 25 157 12 5 22
13 22 17 0 12 -148 10 -155 -2z"/>
<path d="M668 993 c-8 -10 -5 -13 10 -13 31 0 36 -16 37 -128 l1 -102 -59 57
c-32 32 -84 88 -115 126 l-56 67 -52 0 c-61 0 -76 -13 -37 -32 l28 -13 1 -140
c1 -163 -4 -189 -34 -193 -12 -2 -22 -8 -22 -13 0 -5 32 -9 70 -9 40 0 70 4
70 10 0 6 -4 10 -9 10 -5 0 -17 7 -25 16 -13 12 -16 40 -16 135 0 65 3 119 8
118 4 0 34 -32 67 -70 84 -99 192 -209 204 -209 7 0 12 65 13 183 3 180 3 182
26 185 12 2 22 9 22 15 0 17 -118 16 -132 0z"/>
<path d="M827 1003 c-14 -13 -6 -23 17 -23 30 0 32 -10 30 -150 -3 -188 -2
-181 -24 -187 -11 -3 -20 -9 -20 -14 0 -12 107 -11 115 1 3 6 -3 10 -14 10
-12 0 -22 6 -22 13 -5 50 -4 239 1 242 6 4 70 -136 70 -154 0 -25 51 -124 59
-115 5 5 21 38 36 74 44 104 93 202 98 193 7 -13 1 -228 -7 -241 -4 -7 -15
-12 -24 -12 -12 0 -13 -3 -5 -8 7 -4 32 -7 55 -6 24 1 53 2 66 3 27 1 29 17 2
24 -14 3 -20 14 -21 34 -6 171 -7 261 -3 275 3 9 16 19 29 22 43 11 27 26 -28
26 l-53 0 -56 -127 c-31 -70 -60 -129 -65 -130 -9 -3 -54 93 -93 200 l-21 57
-58 0 c-32 0 -61 -3 -64 -7z"/>
<path d="M170 985 c0 -9 9 -15 24 -15 30 0 32 -11 30 -180 -3 -156 -6 -176
-26 -172 -9 1 -18 -5 -22 -14 -5 -14 4 -15 81 -12 57 2 88 7 91 16 2 7 -5 12
-17 12 -29 0 -32 22 -29 195 3 147 3 150 26 153 12 2 22 10 22 18 0 11 -19 14
-90 14 -73 0 -90 -3 -90 -15z"/>
<path d="M2825 590 l-39 -5 -1 -57 c-1 -32 2 -63 5 -68 4 -7 25 -9 51 -6 24 2
47 5 52 5 4 1 7 6 7 12 0 6 -15 10 -32 9 -51 -3 -58 -1 -58 15 0 11 11 15 36
15 24 0 34 4 31 13 -2 7 -16 11 -35 9 -27 -3 -32 0 -32 17 0 18 6 21 40 21 22
0 40 4 40 9 0 14 -21 17 -65 11z"/>
<path d="M2520 563 c0 -7 12 -13 26 -13 19 0 24 -3 18 -12 -13 -18 -10 -91 3
-95 8 -3 13 16 15 54 3 51 6 58 26 61 46 7 20 23 -33 20 -36 -2 -55 -7 -55
-15z"/>
<path d="M2680 563 c0 -11 -4 -23 -8 -28 -5 -6 -16 -29 -25 -52 -14 -36 -15
-43 -3 -43 8 0 17 8 20 18 5 14 15 18 38 17 18 -1 34 -7 36 -14 2 -6 10 -11
17 -11 10 0 6 17 -15 63 -27 61 -60 88 -60 50z m40 -54 c0 -5 -9 -9 -19 -9
-14 0 -18 5 -14 20 4 16 8 18 19 9 8 -6 14 -15 14 -20z"/>
<path d="M2187 558 c-6 -4 -9 -10 -5 -13 3 -4 2 -20 -2 -36 -5 -16 -5 -29 -1
-29 4 0 6 -14 3 -31 l-4 -30 58 3 c67 3 76 23 11 23 -53 0 -60 27 -9 35 43 7
41 25 -3 24 -22 -1 -35 4 -35 12 0 18 19 28 54 28 16 1 31 7 33 13 5 14 -79
14 -100 1z"/>
<path d="M2413 558 c-19 -24 -10 -47 24 -63 38 -18 39 -41 2 -38 -13 1 -31 -1
-39 -3 -13 -4 -13 -6 0 -14 26 -17 68 -11 84 11 19 28 12 42 -30 62 -38 19
-37 40 1 35 13 -2 25 2 27 7 5 15 -57 18 -69 3z"/>
<path d="M1957 522 c-44 -103 -46 -112 -33 -112 8 0 16 7 20 15 8 22 72 20 85
-2 5 -10 12 -15 15 -12 4 3 -5 30 -19 60 -14 30 -25 59 -25 65 0 7 -6 14 -13
17 -9 3 -20 -8 -30 -31z m39 -30 c10 -26 9 -27 -17 -28 -27 -2 -27 -1 -13 20
8 13 11 26 7 29 -3 4 -2 7 3 7 5 0 14 -12 20 -28z"/>
<path d="M2050 545 c0 -10 7 -15 17 -13 15 3 18 -6 19 -49 2 -73 3 -75 15 -68
6 4 10 21 9 39 -5 79 -2 86 31 86 17 0 28 4 24 10 -3 6 -31 10 -61 10 -42 0
-54 -3 -54 -15z"/>
<path d="M1770 542 c-29 -10 -52 -52 -28 -52 6 0 8 -3 4 -7 -4 -4 8 -13 26
-19 46 -15 44 -39 -4 -38 -39 1 -50 -9 -22 -20 73 -28 117 41 47 74 -37 17
-38 35 -3 35 13 0 25 5 27 11 4 13 -25 23 -47 16z"/>
<path d="M1835 540 c-3 -5 6 -12 19 -16 18 -4 23 -10 18 -20 -10 -18 -3 -94 9
-94 10 0 12 15 9 78 -1 23 2 42 7 41 18 -3 33 2 33 11 0 13 -87 13 -95 0z"/>
<path d="M3157 544 c-1 -1 -42 -4 -92 -7 -107 -7 -95 -5 -95 -18 0 -10 154 -7
295 6 17 2 36 3 43 4 6 0 12 6 12 12 0 6 -29 9 -81 7 -44 -1 -81 -3 -82 -4z"/>
<path d="M1585 530 c-1 -3 -2 -35 -2 -72 l0 -68 46 5 c25 2 52 4 59 4 6 1 12
6 12 12 0 7 -18 9 -50 6 -44 -4 -50 -2 -50 14 0 15 7 19 40 19 28 0 40 4 40
14 0 10 -11 13 -39 11 -33 -2 -40 0 -43 19 -4 18 0 22 26 22 57 2 66 4 66 14
0 10 -99 10 -105 0z"/>
<path d="M1095 510 l-40 -5 0 -70 c0 -60 2 -70 18 -69 9 1 38 2 63 3 32 1 44
5 41 14 -2 8 -19 11 -49 9 -27 -2 -49 2 -53 8 -12 20 -4 23 83 29 6 1 12 6 12
11 0 6 -22 10 -49 10 -41 0 -49 3 -47 18 2 13 14 18 47 20 38 3 80 21 54 23
-6 0 -17 2 -25 3 -8 1 -33 -1 -55 -4z"/>
<path d="M1241 475 c-12 -25 -21 -49 -21 -55 0 -5 -5 -10 -12 -10 -6 0 -8 -3
-5 -7 4 -3 2 -12 -4 -20 -9 -10 -8 -13 2 -13 8 0 19 8 25 18 15 24 72 27 95 6
31 -28 32 -9 1 42 -15 27 -31 57 -35 67 -10 28 -23 20 -46 -28z m62 -37 c7 -4
8 -8 2 -9 -63 -7 -64 -7 -54 19 16 42 22 46 31 21 5 -13 14 -27 21 -31z"/>
<path d="M1375 453 l0 -67 35 0 c76 2 90 4 90 14 0 6 -24 10 -54 10 l-55 0 3
55 c2 35 -1 55 -8 55 -7 0 -11 -25 -11 -67z"/>
<path d="M917 502 c-15 -3 -18 -12 -16 -46 2 -23 0 -46 -3 -51 -7 -13 5 -47
17 -46 5 1 9 12 10 26 0 14 2 25 5 26 16 2 39 -15 43 -31 3 -12 13 -18 26 -17
20 1 20 2 -6 29 -15 15 -21 28 -14 28 22 0 43 29 36 50 -11 33 -42 44 -98 32z
m68 -29 c16 -15 15 -17 -6 -28 -12 -7 -30 -10 -41 -7 -26 6 -23 40 5 45 12 2
23 5 24 6 1 0 9 -6 18 -16z"/>
<path d="M687 423 c-1 -1 -90 -5 -197 -9 -176 -6 -250 -10 -272 -13 -5 0 -8
-8 -8 -16 0 -13 13 -15 82 -11 46 3 144 8 218 12 74 3 151 8 170 10 19 1 47 3
63 3 16 1 27 7 27 15 0 9 -13 13 -41 12 -22 -1 -41 -2 -42 -3z"/>
</g>
</svg>
